<svg width="52" height="53" viewBox="0 0 52 53" fill="none" xmlns="http://www.w3.org/2000/svg">
<path d="M20.3431 6.62707C23.4673 3.50288 28.5327 3.50287 31.6569 6.62707L46.3431 21.3134C49.4673 24.4376 49.4673 29.5029 46.3431 32.6271L31.6569 47.3134C28.5327 50.4376 23.4673 50.4376 20.3431 47.3134L5.65686 32.6271C2.53266 29.5029 2.53266 24.4376 5.65685 21.3134L20.3431 6.62707Z" fill="#0000FF"/>
<path fill-rule="evenodd" clip-rule="evenodd" d="M17 25.8908C19.0707 26.3164 21.734 27.1401 23.75 28.4352C26.1178 25.3047 30.371 22.3762 35 19.9702C30.6042 24.2441 26.9668 29.0939 24.5 33.9702C22.5118 31.1831 20.3398 28.5891 17 25.8908Z" fill="white"/>
</svg>
