<svg width="52" height="53" viewBox="0 0 52 53" fill="none" xmlns="http://www.w3.org/2000/svg">
<path d="M20.3431 5.68713C23.4673 2.56294 28.5327 2.56293 31.6569 5.68713L46.3431 20.3734C49.4673 23.4976 49.4673 28.5629 46.3431 31.6871L31.6569 46.3734C28.5327 49.4976 23.4673 49.4976 20.3431 46.3734L5.65686 31.6871C2.53266 28.5629 2.53266 23.4976 5.65685 20.3734L20.3431 5.68713Z" fill="#ED1C24"/>
<path fill-rule="evenodd" clip-rule="evenodd" d="M17 24.9509C19.0707 25.3764 21.734 26.2001 23.75 27.4953C26.1178 24.3647 30.371 21.4363 35 19.0303C30.6042 23.3042 26.9668 28.1539 24.5 33.0303C22.5118 30.2432 20.3398 27.6492 17 24.9509Z" fill="white"/>
</svg>
