<svg width="122" height="56" viewBox="0 0 122 56" fill="none" xmlns="http://www.w3.org/2000/svg">
<path d="M0 0.202393H38.6076V19.5062C38.6076 30.1619 29.9595 38.81 19.3038 38.81C8.64811 38.81 0 30.1619 0 19.5062V0.202393Z" fill="#ED1C24"/>
<path d="M11.582 0.202393H27.0251V19.5062C27.0251 23.7685 23.5658 27.2277 19.3036 27.2277C15.0413 27.2277 11.582 23.7685 11.582 19.5062V0.202393Z" fill="#D11C24"/>
<path d="M19.3036 27.2282C23.568 27.2282 27.0251 23.7712 27.0251 19.5067C27.0251 15.2422 23.568 11.7852 19.3036 11.7852C15.0391 11.7852 11.582 15.2422 11.582 19.5067C11.582 23.7712 15.0391 27.2282 19.3036 27.2282Z" fill="#FF9B00"/>
<path d="M19.3036 55.7973C23.568 55.7973 27.0251 52.3403 27.0251 48.0758C27.0251 43.8113 23.568 40.3542 19.3036 40.3542C15.0391 40.3542 11.582 43.8113 11.582 48.0758C11.582 52.3403 15.0391 55.7973 19.3036 55.7973Z" fill="#FF9B00"/>
<path d="M41.6953 0.479736H80.3029V19.7836C80.3029 30.4393 71.6548 39.0874 60.9991 39.0874C50.3434 39.0874 41.6953 30.4393 41.6953 19.7836V0.479736Z" fill="#0000FF"/>
<path d="M53.2773 0.202393H68.7204V19.5062C68.7204 23.7685 65.2612 27.2277 60.9989 27.2277C56.7366 27.2277 53.2773 23.7685 53.2773 19.5062V0.202393Z" fill="#0000D6"/>
<path d="M60.9989 27.2282C65.2634 27.2282 68.7204 23.7712 68.7204 19.5067C68.7204 15.2422 65.2634 11.7852 60.9989 11.7852C56.7344 11.7852 53.2773 15.2422 53.2773 19.5067C53.2773 23.7712 56.7344 27.2282 60.9989 27.2282Z" fill="#FFC700"/>
<path d="M60.9989 55.7973C65.2634 55.7973 68.7204 52.3403 68.7204 48.0758C68.7204 43.8113 65.2634 40.3542 60.9989 40.3542C56.7344 40.3542 53.2773 43.8113 53.2773 48.0758C53.2773 52.3403 56.7344 55.7973 60.9989 55.7973Z" fill="#FFC700"/>
<path d="M83.3906 0.202393H121.998V19.5062C121.998 30.1619 113.35 38.81 102.694 38.81C92.0387 38.81 83.3906 30.1619 83.3906 19.5062V0.202393Z" fill="#FF9B00"/>
<path d="M94.9727 0.202393H110.416V19.5062C110.416 23.7685 106.956 27.2277 102.694 27.2277C98.4319 27.2277 94.9727 23.7685 94.9727 19.5062V0.202393Z" fill="#FF7B12"/>
<path d="M102.694 27.2282C106.959 27.2282 110.416 23.7712 110.416 19.5067C110.416 15.2422 106.959 11.7852 102.694 11.7852C98.4297 11.7852 94.9727 15.2422 94.9727 19.5067C94.9727 23.7712 98.4297 27.2282 102.694 27.2282Z" fill="#FFC700"/>
<path d="M102.694 55.7973C106.959 55.7973 110.416 52.3403 110.416 48.0758C110.416 43.8113 106.959 40.3542 102.694 40.3542C98.4297 40.3542 94.9727 43.8113 94.9727 48.0758C94.9727 52.3403 98.4297 55.7973 102.694 55.7973Z" fill="#FFC700"/>
</svg>
