<svg width="90" height="80" viewBox="0 0 90 80" fill="none" xmlns="http://www.w3.org/2000/svg">
<rect width="90" height="80" rx="12" fill="#ED1C24"/>
<path d="M60.3906 15.3921C61.081 15.3921 61.6406 15.9517 61.6406 16.6421L61.6406 24.1421C61.6406 24.8324 61.081 25.3921 60.3906 25.3921L29.1406 25.3921C28.4503 25.3921 27.8906 24.8324 27.8906 24.1421L27.8906 16.6421C27.8906 15.9517 28.4503 15.3921 29.1406 15.3921L60.3906 15.3921Z" fill="#C52229"/>
<path fill-rule="evenodd" clip-rule="evenodd" d="M62.8906 16.6421L62.8906 24.1421C62.8906 25.5228 61.7713 26.6421 60.3906 26.6421L29.1406 26.6421C27.7599 26.6421 26.6406 25.5228 26.6406 24.1421L26.6406 16.6421C26.6406 15.2614 27.7599 14.1421 29.1406 14.1421L60.3906 14.1421C61.7713 14.1421 62.8906 15.2614 62.8906 16.6421ZM61.6406 16.6421C61.6406 15.9517 61.081 15.3921 60.3906 15.3921L29.1406 15.3921C28.4503 15.3921 27.8906 15.9517 27.8906 16.6421L27.8906 24.1421C27.8906 24.8324 28.4503 25.3921 29.1406 25.3921L60.3906 25.3921C61.081 25.3921 61.6406 24.8324 61.6406 24.1421L61.6406 16.6421Z" fill="#9B0F15"/>
<path fill-rule="evenodd" clip-rule="evenodd" d="M29.0273 16.0171C29.0273 15.6719 29.3072 15.3921 29.6523 15.3921H60.2353C60.5805 15.3921 60.8603 15.6719 60.8603 16.0171C60.8603 16.3623 60.5805 16.6421 60.2353 16.6421H29.6523C29.3072 16.6421 29.0273 16.3623 29.0273 16.0171Z" fill="#DF3840"/>
<path fill-rule="evenodd" clip-rule="evenodd" d="M28.7891 19.6499C28.7891 19.3047 29.0689 19.0249 29.4141 19.0249H59.997C60.3422 19.0249 60.622 19.3047 60.622 19.6499C60.622 19.9951 60.3422 20.2749 59.997 20.2749H29.4141C29.0689 20.2749 28.7891 19.9951 28.7891 19.6499Z" fill="#AF1B22"/>
<path fill-rule="evenodd" clip-rule="evenodd" d="M28.7891 17.3452C28.7891 17 29.0689 16.7202 29.4141 16.7202H59.997C60.3422 16.7202 60.622 17 60.622 17.3452C60.622 17.6904 60.3422 17.9702 59.997 17.9702H29.4141C29.0689 17.9702 28.7891 17.6904 28.7891 17.3452Z" fill="#AF1B22"/>
<path fill-rule="evenodd" clip-rule="evenodd" d="M28.7891 21.9155C28.7891 21.5703 29.0689 21.2905 29.4141 21.2905H59.997C60.3422 21.2905 60.622 21.5703 60.622 21.9155C60.622 22.2607 60.3422 22.5405 59.997 22.5405H29.4141C29.0689 22.5405 28.7891 22.2607 28.7891 21.9155Z" fill="#AF1B22"/>
<path fill-rule="evenodd" clip-rule="evenodd" d="M29.0273 23.9858C29.0273 23.6407 29.3072 23.3608 29.6523 23.3608H60.2353C60.5805 23.3608 60.8603 23.6407 60.8603 23.9858C60.8603 24.331 60.5805 24.6108 60.2353 24.6108H29.6523C29.3072 24.6108 29.0273 24.331 29.0273 23.9858Z" fill="#AF1B22"/>
<path d="M29.8292 15.8839C29.341 15.3957 28.5496 15.3957 28.0614 15.8839L22.7581 21.1872C22.27 21.6753 22.27 22.4668 22.7581 22.955L44.0786 44.2754C44.5667 44.7635 45.3582 44.7635 45.8463 44.2754L51.1496 38.9721C51.6378 38.4839 51.6378 37.6925 51.1496 37.2043L29.8292 15.8839Z" fill="#F1333B"/>
<path fill-rule="evenodd" clip-rule="evenodd" d="M27.1775 15.0002L21.8742 20.3035C20.8979 21.2798 20.8979 22.8627 21.8742 23.839L43.1947 45.1595C44.171 46.1358 45.7539 46.1358 46.7302 45.1595L52.0335 39.8562C53.0098 38.8799 53.0098 37.2969 52.0335 36.3206L30.7131 15.0002C29.7368 14.0239 28.1539 14.0239 27.1775 15.0002ZM28.0614 15.8841C28.5496 15.3959 29.341 15.3959 29.8292 15.8841L51.1496 37.2045C51.6378 37.6927 51.6378 38.4841 51.1496 38.9723L45.8463 44.2756C45.3582 44.7637 44.5667 44.7637 44.0786 44.2756L22.7581 22.9551C22.27 22.467 22.27 21.6755 22.7581 21.1874L28.0614 15.8841Z" fill="#9B0F15"/>
<path d="M59.7056 15.9083C60.1917 15.4087 60.9925 15.4032 61.4854 15.8961L66.7886 21.1992C67.272 21.6827 67.2774 22.4648 66.8006 22.9548L46.0809 44.251C45.5948 44.7506 44.794 44.7561 44.3011 44.2632L38.998 38.96C38.5146 38.4766 38.5092 37.6945 38.9859 37.2045L59.7056 15.9083Z" fill="#F1333B"/>
<path fill-rule="evenodd" clip-rule="evenodd" d="M62.3693 15.0124L67.6725 20.3155C68.6393 21.2824 68.6501 22.8466 67.6966 23.8266L46.9769 45.1228C46.0047 46.1221 44.403 46.133 43.4172 45.1472L38.1141 39.8441C37.1473 38.8773 37.1365 37.313 38.09 36.333L58.8097 15.0368C59.7819 14.0376 61.3835 14.0266 62.3693 15.0124ZM61.4854 15.8963C60.9926 15.4034 60.1917 15.4089 59.7056 15.9085L38.9859 37.2047C38.5092 37.6947 38.5146 38.4768 38.998 38.9602L44.3011 44.2634C44.794 44.7563 45.5948 44.7508 46.0809 44.2512L66.8006 22.955C67.2774 22.465 67.272 21.6828 66.7886 21.1994L61.4854 15.8963Z" fill="#9B0F15"/>
<path fill-rule="evenodd" clip-rule="evenodd" d="M60.7134 16.4325C60.9585 16.6755 60.9604 17.0712 60.7174 17.3164L47.944 30.207C47.701 30.4522 47.3053 30.454 47.0601 30.211C46.8149 29.9681 46.8131 29.5724 47.056 29.3272L59.8295 16.4365C60.0724 16.1914 60.4682 16.1895 60.7134 16.4325Z" fill="#FE666D"/>
<path fill-rule="evenodd" clip-rule="evenodd" d="M22.9174 21.6689C23.1615 21.4248 23.5572 21.4248 23.8013 21.6689L31.9263 29.7939C32.1704 30.038 32.1704 30.4337 31.9263 30.6778C31.6822 30.9219 31.2865 30.9219 31.0424 30.6778L22.9174 22.5528C22.6734 22.3087 22.6734 21.913 22.9174 21.6689Z" fill="#FE666D"/>
<path d="M63.2552 20.0165C63.005 20.2667 62.6042 20.2717 62.36 20.0275C62.1159 19.7834 62.1208 19.3826 62.3711 19.1323C62.6213 18.8821 63.0221 18.8771 63.2663 19.1213C63.5104 19.3654 63.5055 19.7662 63.2552 20.0165Z" fill="#DB1B24"/>
<path d="M61.3565 21.5638C61.0452 21.8751 60.5466 21.8813 60.2429 21.5776C59.9392 21.2739 59.9454 20.7753 60.2567 20.464C60.568 20.1527 61.0665 20.1466 61.3702 20.4503C61.6739 20.754 61.6678 21.2525 61.3565 21.5638Z" fill="#DB1B24"/>
<path d="M63.3814 22.0529C63.2257 22.2086 62.9764 22.2116 62.8246 22.0598C62.6727 21.9079 62.6758 21.6587 62.8315 21.503C62.9871 21.3474 63.2364 21.3443 63.3882 21.4961C63.5401 21.648 63.537 21.8973 63.3814 22.0529Z" fill="#DB1B24"/>
<path d="M58.8775 27.3327C58.7218 27.4883 58.4725 27.4914 58.3207 27.3396C58.1688 27.1877 58.1719 26.9384 58.3276 26.7828C58.4832 26.6272 58.7325 26.6241 58.8843 26.7759C59.0362 26.9278 59.0331 27.1771 58.8775 27.3327Z" fill="#DB1B24"/>
<path d="M61.1392 23.7453C60.9835 23.9009 60.7342 23.904 60.5824 23.7522C60.4305 23.6003 60.4336 23.351 60.5893 23.1954C60.7449 23.0398 60.9942 23.0367 61.146 23.1885C61.2979 23.3404 61.2948 23.5896 61.1392 23.7453Z" fill="#DB1B24"/>
<path d="M58.8735 29.485C58.7179 29.6407 58.4686 29.6438 58.3168 29.4919C58.1649 29.3401 58.168 29.0908 58.3236 28.9351C58.4793 28.7795 58.7286 28.7764 58.8804 28.9283C59.0323 29.0801 59.0292 29.3294 58.8735 29.485Z" fill="#DB1B24"/>
<path d="M59.4439 23.2702C59.2882 23.4258 59.0389 23.4289 58.8871 23.2771C58.7352 23.1252 58.7383 22.8759 58.894 22.7203C59.0496 22.5647 59.2989 22.5616 59.4507 22.7134C59.6026 22.8653 59.5995 23.1146 59.4439 23.2702Z" fill="#DB1B24"/>
<path d="M60.7095 27.7228C60.5538 27.8785 60.3046 27.8816 60.1527 27.7297C60.0009 27.5779 60.0039 27.3286 60.1596 27.1729C60.3152 27.0173 60.5645 27.0142 60.7164 27.1661C60.8682 27.3179 60.8651 27.5672 60.7095 27.7228Z" fill="#DB1B24"/>
<path d="M65.2681 21.0661C65.1124 21.2217 64.8632 21.2248 64.7113 21.073C64.5595 20.9211 64.5625 20.6718 64.7182 20.5162C64.8738 20.3606 65.1231 20.3575 65.2749 20.5093C65.4268 20.6612 65.4237 20.9104 65.2681 21.0661Z" fill="#DB1B24"/>
<path d="M63.2058 24.3321C62.9525 24.5854 62.5468 24.5904 62.2997 24.3433C62.0526 24.0962 62.0576 23.6905 62.3109 23.4372C62.5642 23.1839 62.9699 23.1789 63.217 23.426C63.4641 23.6731 63.4591 24.0788 63.2058 24.3321Z" fill="#DB1B24"/>
<path d="M65.6199 22.8121C65.3666 23.0654 64.9609 23.0704 64.7138 22.8233C64.4666 22.5761 64.4716 22.1705 64.7249 21.9171C64.9782 21.6638 65.3839 21.6588 65.6311 21.906C65.8782 22.1531 65.8732 22.5588 65.6199 22.8121Z" fill="#DB1B24"/>
<path d="M60.7292 25.9444C60.4759 26.1977 60.0703 26.2027 59.8231 25.9556C59.576 25.7085 59.581 25.3028 59.8343 25.0495C60.0876 24.7962 60.4933 24.7912 60.7404 25.0383C60.9876 25.2854 60.9826 25.6911 60.7292 25.9444Z" fill="#DB1B24"/>
<path d="M62.4868 26.2194C62.3312 26.3751 62.0819 26.3781 61.9301 26.2263C61.7782 26.0744 61.7813 25.8252 61.9369 25.6695C62.0926 25.5139 62.3418 25.5108 62.4937 25.6626C62.6455 25.8145 62.6425 26.0638 62.4868 26.2194Z" fill="#DB1B24"/>
<path d="M61.875 48.125C61.875 57.4448 54.3198 65 45 65C35.6802 65 28.125 57.4448 28.125 48.125C28.125 38.8052 35.6802 31.25 45 31.25C54.3198 31.25 61.875 38.8052 61.875 48.125Z" fill="#BCCCD2"/>
<path fill-rule="evenodd" clip-rule="evenodd" d="M63.125 48.125C63.125 58.1352 55.0102 66.25 45 66.25C34.9898 66.25 26.875 58.1352 26.875 48.125C26.875 38.1148 34.9898 30 45 30C55.0102 30 63.125 38.1148 63.125 48.125ZM45 65C54.3198 65 61.875 57.4448 61.875 48.125C61.875 38.8052 54.3198 31.25 45 31.25C35.6802 31.25 28.125 38.8052 28.125 48.125C28.125 57.4448 35.6802 65 45 65Z" fill="#81A5B0"/>
<path fill-rule="evenodd" clip-rule="evenodd" d="M29.375 48.75C29.0298 48.75 28.75 48.4702 28.75 48.125C28.75 39.1504 36.0254 31.875 45 31.875C45.3452 31.875 45.625 32.1548 45.625 32.5C45.625 32.8452 45.3452 33.125 45 33.125C36.7157 33.125 30 39.8407 30 48.125C30 48.4702 29.7202 48.75 29.375 48.75Z" fill="#D0DEE3"/>
<path fill-rule="evenodd" clip-rule="evenodd" d="M60.625 47.5C60.9702 47.5 61.25 47.7798 61.25 48.125C61.25 57.0996 53.9746 64.375 45 64.375C44.6548 64.375 44.375 64.0952 44.375 63.75C44.375 63.4048 44.6548 63.125 45 63.125C53.2843 63.125 60 56.4093 60 48.125C60 47.7798 60.2798 47.5 60.625 47.5Z" fill="#A2B9C1"/>
<path d="M57.5 48.125C57.5 55.0286 51.9036 60.625 45 60.625C38.0964 60.625 32.5 55.0286 32.5 48.125C32.5 41.2214 38.0964 35.625 45 35.625C51.9036 35.625 57.5 41.2214 57.5 48.125Z" fill="#C7D4D8"/>
<path fill-rule="evenodd" clip-rule="evenodd" d="M58.75 48.125C58.75 55.7189 52.5939 61.875 45 61.875C37.4061 61.875 31.25 55.7189 31.25 48.125C31.25 40.5311 37.4061 34.375 45 34.375C52.5939 34.375 58.75 40.5311 58.75 48.125ZM45 60.625C51.9036 60.625 57.5 55.0286 57.5 48.125C57.5 41.2214 51.9036 35.625 45 35.625C38.0964 35.625 32.5 41.2214 32.5 48.125C32.5 55.0286 38.0964 60.625 45 60.625Z" fill="#81A5B0"/>
<path fill-rule="evenodd" clip-rule="evenodd" d="M45 58.75C50.868 58.75 55.625 53.993 55.625 48.125C55.625 47.7798 55.9048 47.5 56.25 47.5C56.5952 47.5 56.875 47.7798 56.875 48.125C56.875 54.6834 51.5584 60 45 60C44.6548 60 44.375 59.7202 44.375 59.375C44.375 59.0298 44.6548 58.75 45 58.75Z" fill="#B5C3C8"/>
<path fill-rule="evenodd" clip-rule="evenodd" d="M45 37.5C39.132 37.5 34.375 42.257 34.375 48.125C34.375 48.4702 34.0952 48.75 33.75 48.75C33.4048 48.75 33.125 48.4702 33.125 48.125C33.125 41.5666 38.4416 36.25 45 36.25C45.3452 36.25 45.625 36.5298 45.625 36.875C45.625 37.2202 45.3452 37.5 45 37.5Z" fill="#D9EAEF"/>
<path d="M48.6587 53.125H41.3491V51.6748L44.7988 47.998C45.2725 47.4805 45.6216 47.0288 45.8462 46.6431C46.0757 46.2573 46.1904 45.8911 46.1904 45.5444C46.1904 45.0708 46.0708 44.6997 45.8315 44.4312C45.5923 44.1577 45.2505 44.021 44.8062 44.021C44.3276 44.021 43.9492 44.187 43.6709 44.519C43.3975 44.8462 43.2607 45.2783 43.2607 45.8154H41.1367C41.1367 45.166 41.2905 44.5728 41.5981 44.0356C41.9106 43.4985 42.3501 43.0786 42.9165 42.7759C43.4829 42.4683 44.125 42.3145 44.8428 42.3145C45.9414 42.3145 46.7935 42.5781 47.3989 43.1055C48.0093 43.6328 48.3145 44.3774 48.3145 45.3394C48.3145 45.8667 48.1777 46.4038 47.9043 46.9507C47.6309 47.4976 47.1621 48.1348 46.498 48.8623L44.0737 51.4185H48.6587V53.125Z" fill="#D9EAEF"/>
<path fill-rule="evenodd" clip-rule="evenodd" d="M49.9087 53.125C49.9087 53.8154 49.349 54.375 48.6587 54.375H41.3491C40.6588 54.375 40.0991 53.8154 40.0991 53.125V51.6748C40.0991 51.3571 40.2201 51.0512 40.4375 50.8195L43.8818 47.1486C44.3223 46.6667 44.6047 46.291 44.766 46.0141L44.7719 46.004C44.9196 45.7558 44.9404 45.6091 44.9404 45.5444C44.9404 45.4109 44.9234 45.3328 44.911 45.2944C44.9089 45.2879 44.9069 45.2825 44.9051 45.278C44.8852 45.2746 44.8531 45.271 44.8062 45.271C44.7127 45.271 44.6735 45.2868 44.6656 45.2902C44.6607 45.2924 44.6574 45.2944 44.6537 45.2971C44.65 45.3 44.6417 45.3069 44.6294 45.3214C44.5884 45.3707 44.5107 45.4948 44.5107 45.8154C44.5107 46.5058 43.9511 47.0654 43.2607 47.0654H41.1367C40.4464 47.0654 39.8867 46.5058 39.8867 45.8154C39.8867 44.9592 40.0921 44.1501 40.5134 43.4144L40.5177 43.407C40.9502 42.6637 41.5616 42.0835 42.3236 41.6754C43.0922 41.2588 43.9422 41.0645 44.8428 41.0645C46.1308 41.0645 47.3133 41.3742 48.218 42.1612C49.1551 42.9719 49.5645 44.0919 49.5645 45.3394C49.5645 46.0895 49.3687 46.8169 49.0223 47.5097C48.6758 48.2029 48.1219 48.9375 47.4213 49.705C47.4159 49.7109 47.4105 49.7167 47.405 49.7225L46.982 50.1685H48.6587C49.349 50.1685 49.9087 50.7281 49.9087 51.4185V53.125ZM44.0737 51.4185L46.498 48.8623C47.1621 48.1348 47.6309 47.4976 47.9043 46.9507C48.1777 46.4038 48.3145 45.8667 48.3145 45.3394C48.3145 44.3774 48.0093 43.6328 47.3989 43.1055C46.7935 42.5781 45.9414 42.3145 44.8428 42.3145C44.125 42.3145 43.4829 42.4683 42.9165 42.7759C42.3501 43.0786 41.9106 43.4985 41.5981 44.0356C41.5003 44.2066 41.4179 44.3831 41.3512 44.5654C41.2082 44.956 41.1367 45.3727 41.1367 45.8154H43.2607C43.2607 45.2783 43.3975 44.8462 43.6709 44.519C43.9492 44.187 44.3276 44.021 44.8062 44.021C45.2505 44.021 45.5923 44.1577 45.8315 44.4312C46.0708 44.6997 46.1904 45.0708 46.1904 45.5444C46.1904 45.8911 46.0757 46.2573 45.8462 46.6431C45.6216 47.0288 45.2725 47.4805 44.7988 47.998L41.3491 51.6748V53.125H48.6587V51.4185H44.0737Z" fill="#81A5B0"/>
</svg>
