<svg width="90" height="80" viewBox="0 0 90 80" fill="none" xmlns="http://www.w3.org/2000/svg">
<rect width="90" height="80" rx="12" fill="#FBDD00"/>
<path d="M60.3906 15.3921C61.081 15.3921 61.6406 15.9517 61.6406 16.6421L61.6406 24.1421C61.6406 24.8324 61.081 25.3921 60.3906 25.3921L29.1406 25.3921C28.4503 25.3921 27.8906 24.8324 27.8906 24.1421L27.8906 16.6421C27.8906 15.9517 28.4503 15.3921 29.1406 15.3921L60.3906 15.3921Z" fill="#C52229"/>
<path fill-rule="evenodd" clip-rule="evenodd" d="M62.8906 16.6421L62.8906 24.1421C62.8906 25.5228 61.7713 26.6421 60.3906 26.6421L29.1406 26.6421C27.7599 26.6421 26.6406 25.5228 26.6406 24.1421L26.6406 16.6421C26.6406 15.2614 27.7599 14.1421 29.1406 14.1421L60.3906 14.1421C61.7713 14.1421 62.8906 15.2614 62.8906 16.6421ZM61.6406 16.6421C61.6406 15.9517 61.081 15.3921 60.3906 15.3921L29.1406 15.3921C28.4503 15.3921 27.8906 15.9517 27.8906 16.6421L27.8906 24.1421C27.8906 24.8324 28.4503 25.3921 29.1406 25.3921L60.3906 25.3921C61.081 25.3921 61.6406 24.8324 61.6406 24.1421L61.6406 16.6421Z" fill="#9B0F15"/>
<path fill-rule="evenodd" clip-rule="evenodd" d="M29.0273 16.0171C29.0273 15.6719 29.3072 15.3921 29.6523 15.3921H60.2353C60.5805 15.3921 60.8603 15.6719 60.8603 16.0171C60.8603 16.3623 60.5805 16.6421 60.2353 16.6421H29.6523C29.3072 16.6421 29.0273 16.3623 29.0273 16.0171Z" fill="#DF3840"/>
<path fill-rule="evenodd" clip-rule="evenodd" d="M28.7891 19.6499C28.7891 19.3047 29.0689 19.0249 29.4141 19.0249H59.997C60.3422 19.0249 60.622 19.3047 60.622 19.6499C60.622 19.9951 60.3422 20.2749 59.997 20.2749H29.4141C29.0689 20.2749 28.7891 19.9951 28.7891 19.6499Z" fill="#AF1B22"/>
<path fill-rule="evenodd" clip-rule="evenodd" d="M28.7891 17.3452C28.7891 17 29.0689 16.7202 29.4141 16.7202H59.997C60.3422 16.7202 60.622 17 60.622 17.3452C60.622 17.6904 60.3422 17.9702 59.997 17.9702H29.4141C29.0689 17.9702 28.7891 17.6904 28.7891 17.3452Z" fill="#AF1B22"/>
<path fill-rule="evenodd" clip-rule="evenodd" d="M28.7891 21.9155C28.7891 21.5703 29.0689 21.2905 29.4141 21.2905H59.997C60.3422 21.2905 60.622 21.5703 60.622 21.9155C60.622 22.2607 60.3422 22.5405 59.997 22.5405H29.4141C29.0689 22.5405 28.7891 22.2607 28.7891 21.9155Z" fill="#AF1B22"/>
<path fill-rule="evenodd" clip-rule="evenodd" d="M29.0273 23.9858C29.0273 23.6407 29.3072 23.3608 29.6523 23.3608H60.2353C60.5805 23.3608 60.8603 23.6407 60.8603 23.9858C60.8603 24.331 60.5805 24.6108 60.2353 24.6108H29.6523C29.3072 24.6108 29.0273 24.331 29.0273 23.9858Z" fill="#AF1B22"/>
<path d="M29.8292 15.8839C29.341 15.3957 28.5496 15.3957 28.0614 15.8839L22.7581 21.1872C22.27 21.6753 22.27 22.4668 22.7581 22.955L44.0786 44.2754C44.5667 44.7635 45.3582 44.7635 45.8463 44.2754L51.1496 38.9721C51.6378 38.4839 51.6378 37.6925 51.1496 37.2043L29.8292 15.8839Z" fill="#F1333B"/>
<path fill-rule="evenodd" clip-rule="evenodd" d="M27.1775 14.9997L21.8742 20.303C20.8979 21.2793 20.8979 22.8622 21.8742 23.8385L43.1947 45.159C44.171 46.1353 45.7539 46.1353 46.7302 45.159L52.0335 39.8557C53.0098 38.8794 53.0098 37.2965 52.0335 36.3201L30.7131 14.9997C29.7368 14.0234 28.1539 14.0234 27.1775 14.9997ZM28.0614 15.8836C28.5496 15.3954 29.341 15.3954 29.8292 15.8836L51.1496 37.204C51.6378 37.6922 51.6378 38.4836 51.1496 38.9718L45.8463 44.2751C45.3582 44.7632 44.5667 44.7632 44.0786 44.2751L22.7581 22.9547C22.27 22.4665 22.27 21.675 22.7581 21.1869L28.0614 15.8836Z" fill="#9B0F15"/>
<path d="M59.7056 15.9083C60.1917 15.4087 60.9925 15.4032 61.4854 15.8961L66.7886 21.1992C67.272 21.6827 67.2774 22.4648 66.8006 22.9548L46.0809 44.251C45.5948 44.7506 44.794 44.7561 44.3011 44.2632L38.998 38.96C38.5146 38.4766 38.5092 37.6945 38.9859 37.2045L59.7056 15.9083Z" fill="#F1333B"/>
<path fill-rule="evenodd" clip-rule="evenodd" d="M62.3693 15.0119L67.6725 20.315C68.6393 21.2819 68.6501 22.8461 67.6966 23.8262L46.9769 45.1223C46.0047 46.1216 44.403 46.1326 43.4172 45.1468L38.1141 39.8436C37.1473 38.8768 37.1365 37.3125 38.09 36.3325L58.8097 15.0363C59.7819 14.0371 61.3835 14.0261 62.3693 15.0119ZM61.4854 15.8958C60.9926 15.4029 60.1917 15.4084 59.7056 15.908L38.9859 37.2042C38.5092 37.6942 38.5146 38.4763 38.998 38.9597L44.3011 44.2629C44.794 44.7558 45.5948 44.7503 46.0809 44.2507L66.8006 22.9545C67.2774 22.4645 67.272 21.6824 66.7886 21.1989L61.4854 15.8958Z" fill="#9B0F15"/>
<path fill-rule="evenodd" clip-rule="evenodd" d="M60.7134 16.4325C60.9585 16.6755 60.9604 17.0712 60.7174 17.3164L47.944 30.207C47.701 30.4522 47.3053 30.454 47.0601 30.211C46.8149 29.9681 46.8131 29.5724 47.056 29.3272L59.8295 16.4365C60.0724 16.1914 60.4682 16.1895 60.7134 16.4325Z" fill="#FE666D"/>
<path fill-rule="evenodd" clip-rule="evenodd" d="M22.9174 21.6689C23.1615 21.4248 23.5572 21.4248 23.8013 21.6689L31.9263 29.7939C32.1704 30.038 32.1704 30.4337 31.9263 30.6778C31.6822 30.9219 31.2865 30.9219 31.0424 30.6778L22.9174 22.5528C22.6734 22.3087 22.6734 21.913 22.9174 21.6689Z" fill="#FE666D"/>
<path d="M63.2552 20.0165C63.005 20.2667 62.6042 20.2717 62.36 20.0275C62.1159 19.7834 62.1208 19.3826 62.3711 19.1323C62.6213 18.8821 63.0221 18.8771 63.2663 19.1213C63.5104 19.3654 63.5055 19.7662 63.2552 20.0165Z" fill="#DB1B24"/>
<path d="M61.3565 21.5633C61.0452 21.8746 60.5466 21.8808 60.2429 21.5771C59.9392 21.2734 59.9454 20.7748 60.2567 20.4635C60.568 20.1523 61.0665 20.1461 61.3702 20.4498C61.6739 20.7535 61.6678 21.2521 61.3565 21.5633Z" fill="#DB1B24"/>
<path d="M63.3814 22.0529C63.2257 22.2086 62.9764 22.2116 62.8246 22.0598C62.6727 21.9079 62.6758 21.6587 62.8315 21.503C62.9871 21.3474 63.2364 21.3443 63.3882 21.4961C63.5401 21.648 63.537 21.8973 63.3814 22.0529Z" fill="#DB1B24"/>
<path d="M58.8775 27.3332C58.7218 27.4888 58.4725 27.4919 58.3207 27.3401C58.1688 27.1882 58.1719 26.9389 58.3276 26.7833C58.4832 26.6276 58.7325 26.6246 58.8843 26.7764C59.0362 26.9283 59.0331 27.1775 58.8775 27.3332Z" fill="#DB1B24"/>
<path d="M61.1392 23.7453C60.9835 23.9009 60.7342 23.904 60.5824 23.7522C60.4305 23.6003 60.4336 23.351 60.5893 23.1954C60.7449 23.0398 60.9942 23.0367 61.146 23.1885C61.2979 23.3404 61.2948 23.5896 61.1392 23.7453Z" fill="#DB1B24"/>
<path d="M58.8735 29.485C58.7179 29.6407 58.4686 29.6438 58.3168 29.4919C58.1649 29.3401 58.168 29.0908 58.3236 28.9351C58.4793 28.7795 58.7286 28.7764 58.8804 28.9283C59.0323 29.0801 59.0292 29.3294 58.8735 29.485Z" fill="#DB1B24"/>
<path d="M59.4439 23.2702C59.2882 23.4258 59.0389 23.4289 58.8871 23.2771C58.7352 23.1252 58.7383 22.8759 58.894 22.7203C59.0496 22.5647 59.2989 22.5616 59.4507 22.7134C59.6026 22.8653 59.5995 23.1146 59.4439 23.2702Z" fill="#DB1B24"/>
<path d="M60.7095 27.7233C60.5538 27.879 60.3046 27.882 60.1527 27.7302C60.0009 27.5783 60.0039 27.3291 60.1596 27.1734C60.3152 27.0178 60.5645 27.0147 60.7164 27.1666C60.8682 27.3184 60.8651 27.5677 60.7095 27.7233Z" fill="#DB1B24"/>
<path d="M65.2681 21.0666C65.1124 21.2222 64.8632 21.2253 64.7113 21.0735C64.5595 20.9216 64.5625 20.6723 64.7182 20.5167C64.8738 20.361 65.1231 20.358 65.2749 20.5098C65.4268 20.6617 65.4237 20.9109 65.2681 21.0666Z" fill="#DB1B24"/>
<path d="M63.2058 24.3321C62.9525 24.5854 62.5468 24.5904 62.2997 24.3433C62.0526 24.0962 62.0576 23.6905 62.3109 23.4372C62.5642 23.1839 62.9699 23.1789 63.217 23.426C63.4641 23.6731 63.4591 24.0788 63.2058 24.3321Z" fill="#DB1B24"/>
<path d="M65.6199 22.8121C65.3666 23.0654 64.9609 23.0704 64.7138 22.8233C64.4666 22.5761 64.4716 22.1705 64.7249 21.9171C64.9782 21.6638 65.3839 21.6588 65.6311 21.906C65.8782 22.1531 65.8732 22.5588 65.6199 22.8121Z" fill="#DB1B24"/>
<path d="M60.7292 25.9444C60.4759 26.1977 60.0703 26.2027 59.8231 25.9556C59.576 25.7085 59.581 25.3028 59.8343 25.0495C60.0876 24.7962 60.4933 24.7912 60.7404 25.0383C60.9876 25.2854 60.9826 25.6911 60.7292 25.9444Z" fill="#DB1B24"/>
<path d="M62.4868 26.2194C62.3312 26.3751 62.0819 26.3781 61.9301 26.2263C61.7782 26.0744 61.7813 25.8252 61.9369 25.6695C62.0926 25.5139 62.3418 25.5108 62.4937 25.6626C62.6455 25.8145 62.6425 26.0638 62.4868 26.2194Z" fill="#DB1B24"/>
<path d="M61.875 48.125C61.875 57.4448 54.3198 65 45 65C35.6802 65 28.125 57.4448 28.125 48.125C28.125 38.8052 35.6802 31.25 45 31.25C54.3198 31.25 61.875 38.8052 61.875 48.125Z" fill="#FFBB0D"/>
<path fill-rule="evenodd" clip-rule="evenodd" d="M63.125 48.125C63.125 58.1352 55.0102 66.25 45 66.25C34.9898 66.25 26.875 58.1352 26.875 48.125C26.875 38.1148 34.9898 30 45 30C55.0102 30 63.125 38.1148 63.125 48.125ZM45 65C54.3198 65 61.875 57.4448 61.875 48.125C61.875 38.8052 54.3198 31.25 45 31.25C35.6802 31.25 28.125 38.8052 28.125 48.125C28.125 57.4448 35.6802 65 45 65Z" fill="#E89B05"/>
<path fill-rule="evenodd" clip-rule="evenodd" d="M29.375 48.75C29.0298 48.75 28.75 48.4702 28.75 48.125C28.75 39.1504 36.0254 31.875 45 31.875C45.3452 31.875 45.625 32.1548 45.625 32.5C45.625 32.8452 45.3452 33.125 45 33.125C36.7157 33.125 30 39.8407 30 48.125C30 48.4702 29.7202 48.75 29.375 48.75Z" fill="#E8AA0A"/>
<path fill-rule="evenodd" clip-rule="evenodd" d="M60.625 47.5C60.9702 47.5 61.25 47.7798 61.25 48.125C61.25 57.0996 53.9746 64.375 45 64.375C44.6548 64.375 44.375 64.0952 44.375 63.75C44.375 63.4048 44.6548 63.125 45 63.125C53.2843 63.125 60 56.4093 60 48.125C60 47.7798 60.2798 47.5 60.625 47.5Z" fill="#E8AA0A"/>
<path d="M57.5 48.125C57.5 55.0286 51.9036 60.625 45 60.625C38.0964 60.625 32.5 55.0286 32.5 48.125C32.5 41.2214 38.0964 35.625 45 35.625C51.9036 35.625 57.5 41.2214 57.5 48.125Z" fill="#FFDD28"/>
<path fill-rule="evenodd" clip-rule="evenodd" d="M58.75 48.125C58.75 55.7189 52.5939 61.875 45 61.875C37.4061 61.875 31.25 55.7189 31.25 48.125C31.25 40.5311 37.4061 34.375 45 34.375C52.5939 34.375 58.75 40.5311 58.75 48.125ZM45 60.625C51.9036 60.625 57.5 55.0286 57.5 48.125C57.5 41.2214 51.9036 35.625 45 35.625C38.0964 35.625 32.5 41.2214 32.5 48.125C32.5 55.0286 38.0964 60.625 45 60.625Z" fill="#E89B05"/>
<path fill-rule="evenodd" clip-rule="evenodd" d="M45 58.75C50.868 58.75 55.625 53.993 55.625 48.125C55.625 47.7798 55.9048 47.5 56.25 47.5C56.5952 47.5 56.875 47.7798 56.875 48.125C56.875 54.6834 51.5584 60 45 60C44.6548 60 44.375 59.7202 44.375 59.375C44.375 59.0298 44.6548 58.75 45 58.75Z" fill="#ECC704"/>
<path fill-rule="evenodd" clip-rule="evenodd" d="M45 37.5C39.132 37.5 34.375 42.257 34.375 48.125C34.375 48.4702 34.0952 48.75 33.75 48.75C33.4048 48.75 33.125 48.4702 33.125 48.125C33.125 41.5666 38.4416 36.25 45 36.25C45.3452 36.25 45.625 36.5298 45.625 36.875C45.625 37.2202 45.3452 37.5 45 37.5Z" fill="#FFEF9C"/>
<path d="M46.4912 53.125H44.3745V44.9658L41.8477 45.7495V44.0283L46.2642 42.4463H46.4912V53.125Z" fill="#FFEF9C"/>
<path fill-rule="evenodd" clip-rule="evenodd" d="M47.7412 53.125C47.7412 53.8154 47.1816 54.375 46.4912 54.375H44.3745C43.6842 54.375 43.1245 53.8154 43.1245 53.125V46.6622L42.2179 46.9434C41.8386 47.0611 41.4259 46.9914 41.1062 46.7558C40.7864 46.5202 40.5977 46.1467 40.5977 45.7495V44.0283C40.5977 43.5005 40.9292 43.0295 41.4261 42.8515L45.8426 41.2695C45.9779 41.2211 46.1205 41.1963 46.2642 41.1963H46.4912C47.1816 41.1963 47.7412 41.7559 47.7412 42.4463V53.125ZM44.3745 44.9658V53.125H46.4912V42.4463H46.2642L41.8477 44.0283V45.7495L44.3745 44.9658Z" fill="#E89B05"/>
</svg>
