<svg width="80" height="80" viewBox="0 0 80 80" fill="none" xmlns="http://www.w3.org/2000/svg">
<path d="M34.3432 5.65685C37.4673 2.53265 42.5327 2.53266 45.6569 5.65685L74.3432 34.3432C77.4673 37.4673 77.4673 42.5327 74.3431 45.6569L45.6568 74.3432C42.5327 77.4673 37.4673 77.4673 34.3431 74.3431L5.65685 45.6568C2.53265 42.5327 2.53266 37.4673 5.65685 34.3431L34.3432 5.65685Z" fill="url(#paint0_radial_3166_21873)"/>
<path fill-rule="evenodd" clip-rule="evenodd" d="M40 24C40.3784 24 40.7244 24.2138 40.894 24.5523L41.618 26.0013H51C52.6569 26.0013 54 27.3454 54 29.0034V44.0139H26V29.0034C26 27.3454 27.3431 26.0013 29 26.0013H38.38L39.106 24.5523C39.2756 24.2138 39.6216 24 40 24ZM25 46.0153C24.4477 46.0153 24 46.4633 24 47.016C24 47.5687 24.4477 48.0167 25 48.0167H30.72L29.03 54.7794C28.9107 55.3098 29.2364 55.8384 29.7635 55.97C30.2906 56.1016 30.8263 55.788 30.97 55.2637L31.78 52.0195H48.22L49.03 55.2637C49.1737 55.788 49.7094 56.1016 50.2365 55.97C50.7636 55.8384 51.0893 55.3098 50.97 54.7794L49.28 48.0167H55C55.5523 48.0167 56 47.5687 56 47.016C56 46.4633 55.5523 46.0153 55 46.0153H25ZM32.28 50.0181L32.78 48.0167H47.22L47.72 50.0181H32.28Z" fill="white"/>
<defs>
<radialGradient id="paint0_radial_3166_21873" cx="0" cy="0" r="1" gradientUnits="userSpaceOnUse" gradientTransform="translate(25.4545 -10.7143) rotate(59.1918) scale(118.925 261.055)">
<stop offset="0.125" stop-color="#FF9B00"/>
<stop offset="1" stop-color="#ED1C24"/>
</radialGradient>
</defs>
</svg>
