<svg width="32" height="33" viewBox="0 0 32 33" fill="none" xmlns="http://www.w3.org/2000/svg">
<rect y="0.379883" width="32" height="32" rx="16" fill="#FF9B00"/>
<path d="M16.0036 8.51022C18.5688 8.51022 18.8699 8.52166 19.8838 8.5674C20.8214 8.60932 21.3283 8.7656 21.6676 8.899C22.1173 9.07433 22.4375 9.28016 22.7729 9.61557C23.1083 9.95099 23.318 10.2712 23.4895 10.7209C23.6191 11.0601 23.7792 11.5671 23.8211 12.5047C23.8668 13.5186 23.8783 13.8197 23.8783 16.3849C23.8783 18.95 23.8668 19.2511 23.8211 20.265C23.7792 21.2027 23.6229 21.7096 23.4895 22.0488C23.3142 22.4986 23.1083 22.8187 22.7729 23.1542C22.4375 23.4896 22.1173 23.6992 21.6676 23.8707C21.3283 24.0003 20.8214 24.1604 19.8838 24.2023C18.8699 24.2481 18.5688 24.2595 16.0036 24.2595C13.4385 24.2595 13.1373 24.2481 12.1235 24.2023C11.1858 24.1604 10.6789 24.0041 10.3397 23.8707C9.88991 23.6954 9.56974 23.4896 9.23432 23.1542C8.8989 22.8187 8.68927 22.4986 8.51775 22.0488C8.38816 21.7096 8.22807 21.2027 8.18615 20.265C8.14041 19.2511 8.12897 18.95 8.12897 16.3849C8.12897 13.8197 8.14041 13.5186 8.18615 12.5047C8.22807 11.5671 8.38435 11.0601 8.51775 10.7209C8.69308 10.2712 8.8989 9.95099 9.23432 9.61557C9.56974 9.28016 9.88991 9.07052 10.3397 8.899C10.6789 8.76941 11.1858 8.60932 12.1235 8.5674C13.1373 8.51785 13.4423 8.51022 16.0036 8.51022ZM16.0036 6.77979C13.3965 6.77979 13.0687 6.79122 12.0434 6.83696C11.0219 6.8827 10.3244 7.04659 9.71457 7.28291C9.08186 7.52685 8.54824 7.85845 8.01463 8.39207C7.48101 8.92568 7.15322 9.46311 6.90547 10.092C6.66915 10.7019 6.50526 11.3994 6.45952 12.4247C6.41378 13.4462 6.40234 13.774 6.40234 16.3811C6.40234 18.9881 6.41378 19.3159 6.45952 20.3412C6.50526 21.3627 6.66915 22.0602 6.90547 22.6739C7.14941 23.3066 7.48101 23.8402 8.01463 24.3739C8.54824 24.9075 9.08567 25.2353 9.71457 25.483C10.3244 25.7193 11.0219 25.8832 12.0472 25.929C13.0725 25.9747 13.3965 25.9861 16.0074 25.9861C18.6183 25.9861 18.9423 25.9747 19.9676 25.929C20.9891 25.8832 21.6866 25.7193 22.3003 25.483C22.933 25.2391 23.4666 24.9075 24.0002 24.3739C24.5339 23.8402 24.8616 23.3028 25.1094 22.6739C25.3457 22.0641 25.5096 21.3665 25.5553 20.3412C25.6011 19.3159 25.6125 18.992 25.6125 16.3811C25.6125 13.7701 25.6011 13.4462 25.5553 12.4209C25.5096 11.3994 25.3457 10.7019 25.1094 10.0882C24.8655 9.45549 24.5339 8.92187 24.0002 8.38826C23.4666 7.85464 22.9292 7.52685 22.3003 7.2791C21.6904 7.04278 20.9929 6.87889 19.9676 6.83315C18.9385 6.79122 18.6107 6.77979 16.0036 6.77979Z" fill="white"/>
<path d="M16.0036 8.51022C18.5688 8.51022 18.8699 8.52166 19.8838 8.5674C20.8214 8.60932 21.3283 8.7656 21.6676 8.899C22.1173 9.07433 22.4375 9.28016 22.7729 9.61557C23.1083 9.95099 23.318 10.2712 23.4895 10.7209C23.6191 11.0601 23.7792 11.5671 23.8211 12.5047C23.8668 13.5186 23.8783 13.8197 23.8783 16.3849C23.8783 18.95 23.8668 19.2511 23.8211 20.265C23.7792 21.2027 23.6229 21.7096 23.4895 22.0488C23.3142 22.4986 23.1083 22.8187 22.7729 23.1542C22.4375 23.4896 22.1173 23.6992 21.6676 23.8707C21.3283 24.0003 20.8214 24.1604 19.8838 24.2023C18.8699 24.2481 18.5688 24.2595 16.0036 24.2595C13.4385 24.2595 13.1373 24.2481 12.1235 24.2023C11.1858 24.1604 10.6789 24.0041 10.3397 23.8707C9.88991 23.6954 9.56974 23.4896 9.23432 23.1542C8.8989 22.8187 8.68927 22.4986 8.51775 22.0488C8.38816 21.7096 8.22807 21.2027 8.18615 20.265C8.14041 19.2511 8.12897 18.95 8.12897 16.3849C8.12897 13.8197 8.14041 13.5186 8.18615 12.5047C8.22807 11.5671 8.38435 11.0601 8.51775 10.7209C8.69308 10.2712 8.8989 9.95099 9.23432 9.61557C9.56974 9.28016 9.88991 9.07052 10.3397 8.899C10.6789 8.76941 11.1858 8.60932 12.1235 8.5674C13.1373 8.51785 13.4423 8.51022 16.0036 8.51022Z" fill="white"/>
<path d="M16.0024 11.4526C13.281 11.4526 11.0703 13.6595 11.0703 16.3848C11.0703 19.11 13.2772 21.3169 16.0024 21.3169C18.7277 21.3169 20.9346 19.11 20.9346 16.3848C20.9346 13.6595 18.7277 11.4526 16.0024 11.4526ZM16.0024 19.5826C14.2339 19.5826 12.8008 18.1495 12.8008 16.381C12.8008 14.6124 14.2339 13.1793 16.0024 13.1793C17.771 13.1793 19.2041 14.6124 19.2041 16.381C19.2041 18.1495 17.771 19.5826 16.0024 19.5826Z" fill="#FF9B00"/>
<path d="M21.1276 12.4057C21.7634 12.4057 22.2787 11.8903 22.2787 11.2546C22.2787 10.6189 21.7634 10.1035 21.1276 10.1035C20.4919 10.1035 19.9766 10.6189 19.9766 11.2546C19.9766 11.8903 20.4919 12.4057 21.1276 12.4057Z" fill="#FF9B00"/>
</svg>
