<svg width="32" height="33" viewBox="0 0 32 33" fill="none" xmlns="http://www.w3.org/2000/svg">
<rect y="0.379883" width="32" height="32" rx="16" fill="#FF9B00"/>
<path d="M23.5 7.58008H8.49844C8.15387 7.58008 7.8234 7.71696 7.57975 7.96061C7.3361 8.20426 7.19922 8.53473 7.19922 8.8793V23.8809C7.19922 24.2254 7.3361 24.5559 7.57975 24.7995C7.8234 25.0432 8.15387 25.1801 8.49844 25.1801H23.5C23.8446 25.1801 24.175 25.0432 24.4187 24.7995C24.6623 24.5559 24.7992 24.2254 24.7992 23.8809V8.8793C24.7992 8.53473 24.6623 8.20426 24.4187 7.96061C24.175 7.71696 23.8446 7.58008 23.5 7.58008ZM12.445 22.5731H9.79889V14.1679H12.445V22.5731ZM11.1201 13.0031C10.82 13.0014 10.527 12.9108 10.2783 12.7428C10.0296 12.5748 9.83617 12.3369 9.72253 12.059C9.60889 11.7812 9.58009 11.476 9.63977 11.1818C9.69946 10.8876 9.84494 10.6177 10.0579 10.4062C10.2708 10.1946 10.5416 10.0509 10.8362 9.99308C11.1307 9.93529 11.4358 9.96605 11.7129 10.0815C11.9899 10.1969 12.2266 10.3918 12.393 10.6416C12.5594 10.8914 12.6481 11.1849 12.6479 11.4851C12.6507 11.686 12.6131 11.8855 12.5372 12.0716C12.4613 12.2577 12.3487 12.4266 12.2061 12.5683C12.0635 12.7099 11.8939 12.8214 11.7073 12.8961C11.5208 12.9708 11.321 13.0072 11.1201 13.0031ZM22.1983 22.5804H19.5534V17.9885C19.5534 16.6343 18.9778 16.2163 18.2347 16.2163C17.45 16.2163 16.68 16.8079 16.68 18.0227V22.5804H14.0339V14.174H16.5786V15.3387H16.6128C16.8682 14.8217 17.7629 13.9381 19.1281 13.9381C20.6046 13.9381 22.1996 14.8144 22.1996 17.3811L22.1983 22.5804Z" fill="white"/>
</svg>
