<svg width="32" height="33" viewBox="0 0 32 33" fill="none" xmlns="http://www.w3.org/2000/svg">
<rect y="0.379883" width="32" height="32" rx="16" fill="#FF9B00"/>
<path d="M13.0718 24.82C20.1678 24.82 24.0478 18.94 24.0478 13.844C24.0478 13.676 24.0478 13.508 24.0398 13.348C24.7918 12.804 25.4478 12.124 25.9678 11.348C25.2798 11.652 24.5358 11.86 23.7518 11.956C24.5518 11.476 25.1598 10.724 25.4478 9.82004C24.7038 10.26 23.8798 10.58 22.9998 10.756C22.2958 10.004 21.2958 9.54004 20.1838 9.54004C18.0558 9.54004 16.3278 11.268 16.3278 13.396C16.3278 13.7 16.3598 13.996 16.4318 14.276C13.2238 14.116 10.3838 12.58 8.47978 10.244C8.15178 10.812 7.95978 11.476 7.95978 12.18C7.95978 13.516 8.63978 14.7 9.67978 15.388C9.04778 15.372 8.45578 15.196 7.93578 14.908C7.93578 14.924 7.93578 14.94 7.93578 14.956C7.93578 16.828 9.26378 18.38 11.0318 18.74C10.7118 18.828 10.3678 18.876 10.0158 18.876C9.76778 18.876 9.52778 18.852 9.28778 18.804C9.77578 20.34 11.1998 21.452 12.8878 21.484C11.5678 22.516 9.90378 23.132 8.09578 23.132C7.78378 23.132 7.47978 23.116 7.17578 23.076C8.86378 24.18 10.8958 24.82 13.0718 24.82Z" fill="white"/>
</svg>
