<svg width="32" height="33" viewBox="0 0 32 33" fill="none" xmlns="http://www.w3.org/2000/svg">
<rect y="0.379883" width="32" height="32" rx="16" fill="#FF9B00"/>
<path d="M26.9587 10.8842C26.6951 9.90508 25.9231 9.13307 24.944 8.86945C23.1551 8.37988 15.9999 8.37988 15.9999 8.37988C15.9999 8.37988 8.84464 8.37988 7.05582 8.85062C6.09551 9.11424 5.30467 9.90508 5.04105 10.8842C4.57031 12.673 4.57031 16.3825 4.57031 16.3825C4.57031 16.3825 4.57031 20.1107 5.04105 21.8807C5.30467 22.8599 6.07668 23.6319 7.05582 23.8955C8.86347 24.3851 15.9999 24.3851 15.9999 24.3851C15.9999 24.3851 23.1551 24.3851 24.944 23.9143C25.9231 23.6507 26.6951 22.8787 26.9587 21.8995C27.4295 20.1107 27.4295 16.4013 27.4295 16.4013C27.4295 16.4013 27.4483 12.673 26.9587 10.8842Z" fill="white"/>
<path d="M13.7227 19.8095L19.6728 16.3826L13.7227 12.9556V19.8095Z" fill="#FF9B00"/>
</svg>
